# xmcd
#
# Track frame offsets:
# 150
# 16976
# 28623
# 42362
# 52803
# 62665
# 75813
# 88188
# 103116
# 112536
# 126885
# 139363
# 151974
# 161145
# 172868
# 186408
# 199794
# 210507
# 224231
# 233980
#
# Disc length: 3247 seconds
#
#
# Revision: 0
# Processed by: cddbd v1.5.1PL2 Copyright (c) Steve Scherf et al.
# Submitted via: FreeRIP 2.944 
#
DISCID=0f0cad14
DTITLE=Willie Nelson - The Early Years
DYEAR=1900
DGENRE=Country
TTITLE0=I Let My Mind Wander
TTITLE1=Touch Me
TTITLE2=Last Letter
TTITLE3=I Feel Sorry for Him
TTITLE4=Broken Promises
TTITLE5=You'll Always Have Someone
TTITLE6=The shelter Of Your Arms
TTITLE7=Face of A Fighter
TTITLE8=Building Heartaches
TTITLE9=Will You Remeber Mine
TTITLE10=Any old Arms Won't Do
TTITLE11=I Just Don't Understand
TTITLE12=One Step Beyond
TTITLE13=I Hope So
TTITLE14=Everything But You
TTITLE15=No Tomorrow In Sight
TTITLE16=Go Away
TTITLE17=Home Is Where Your Happy Ashamed
TTITLE18=I Didn't Sleep a Wink
TTITLE19=Half of a Man
EXTD=
EXTT0=
EXTT1=
EXTT2=
EXTT3=
EXTT4=
EXTT5=
EXTT6=
EXTT7=
EXTT8=
EXTT9=
EXTT10=
EXTT11=
EXTT12=
EXTT13=
EXTT14=
EXTT15=
EXTT16=
EXTT17=
EXTT18=
EXTT19=
PLAYORDER=
